<svg width="102" height="209" viewBox="0 0 102 209" fill="none" xmlns="http://www.w3.org/2000/svg">
<circle cx="13.6039" cy="68.586" r="13.6025" fill="#C4C4C4"/>
<circle cx="87.3959" cy="30.179" r="13.6025" fill="#C4C4C4"/>
<circle cx="88.3974" cy="68.586" r="13.6025" fill="#C4C4C4"/>
<circle cx="73.7934" cy="102.168" r="13.6025" fill="#C4C4C4"/>
<circle cx="50.4999" cy="133.683" r="13.6025" fill="#C4C4C4"/>
<circle cx="50.4999" cy="194.494" r="13.6025" fill="#C4C4C4"/>
<circle cx="50.4999" cy="13.6426" r="13.6025" fill="#C4C4C4"/>
<circle cx="13.6039" cy="30.179" r="13.6025" fill="#C4C4C4"/>
<path d="M14.9575 75.0859H13.3228V64.249L10.0444 65.4531V63.9766L14.7026 62.2275H14.9575V75.0859Z" fill="black"/>
<path d="M17.9985 36.679H9.61377V35.51L14.0435 30.5881C14.6997 29.844 15.1509 29.2405 15.397 28.7776C15.6489 28.3088 15.7749 27.8254 15.7749 27.3274C15.7749 26.6594 15.5728 26.1116 15.1685 25.6838C14.7642 25.2561 14.2251 25.0422 13.5513 25.0422C12.7427 25.0422 12.1128 25.2737 11.6616 25.7366C11.2163 26.1936 10.9937 26.8323 10.9937 27.6526H9.36768C9.36768 26.4749 9.74561 25.5227 10.5015 24.7961C11.2632 24.0696 12.2798 23.7063 13.5513 23.7063C14.7407 23.7063 15.6812 24.0198 16.3726 24.6467C17.064 25.2678 17.4097 26.0969 17.4097 27.134C17.4097 28.3938 16.6069 29.8938 15.0015 31.634L11.5737 35.3518H17.9985V36.679Z" fill="black"/>
<path d="M48.874 12.9531H50.0957C50.8633 12.9414 51.4668 12.7393 51.9062 12.3467C52.3457 11.9541 52.5654 11.4238 52.5654 10.7559C52.5654 9.25586 51.8184 8.50586 50.3242 8.50586C49.6211 8.50586 49.0586 8.70801 48.6367 9.1123C48.2207 9.51074 48.0127 10.041 48.0127 10.7031H46.3867C46.3867 9.68945 46.7559 8.84863 47.4941 8.18066C48.2383 7.50684 49.1816 7.16992 50.3242 7.16992C51.5312 7.16992 52.4775 7.48926 53.1631 8.12793C53.8486 8.7666 54.1914 9.6543 54.1914 10.791C54.1914 11.3477 54.0098 11.8867 53.6465 12.4082C53.2891 12.9297 52.7998 13.3193 52.1787 13.5771C52.8818 13.7998 53.4238 14.1689 53.8047 14.6846C54.1914 15.2002 54.3848 15.8301 54.3848 16.5742C54.3848 17.7227 54.0098 18.6338 53.2598 19.3076C52.5098 19.9814 51.5342 20.3184 50.333 20.3184C49.1318 20.3184 48.1533 19.9932 47.3975 19.3428C46.6475 18.6924 46.2725 17.834 46.2725 16.7676H47.9072C47.9072 17.4414 48.127 17.9805 48.5664 18.3848C49.0059 18.7891 49.5947 18.9912 50.333 18.9912C51.1182 18.9912 51.7188 18.7861 52.1348 18.376C52.5508 17.9658 52.7588 17.377 52.7588 16.6094C52.7588 15.8652 52.5303 15.2939 52.0732 14.8955C51.6162 14.4971 50.957 14.292 50.0957 14.2803H48.874V12.9531Z" fill="black"/>
<path d="M90.2695 32.3811H92.0449V33.7083H90.2695V36.679H88.6348V33.7083H82.8076V32.7502L88.5381 23.8821H90.2695V32.3811ZM84.6533 32.3811H88.6348V26.1057L88.4414 26.4573L84.6533 32.3811Z" fill="black"/>
<path d="M85.1543 68.6699L85.8047 62.2891H92.3613V63.792H87.1846L86.7979 67.2812C87.4248 66.9121 88.1367 66.7275 88.9336 66.7275C90.0996 66.7275 91.0254 67.1143 91.7109 67.8877C92.3965 68.6553 92.7393 69.6953 92.7393 71.0078C92.7393 72.3262 92.3818 73.3662 91.667 74.1279C90.958 74.8838 89.9648 75.2617 88.6875 75.2617C87.5566 75.2617 86.6338 74.9482 85.9189 74.3213C85.2041 73.6943 84.7969 72.8271 84.6973 71.7197H86.2354C86.335 72.4521 86.5957 73.0059 87.0176 73.3809C87.4395 73.75 87.9961 73.9346 88.6875 73.9346C89.4434 73.9346 90.0352 73.6768 90.4629 73.1611C90.8965 72.6455 91.1133 71.9336 91.1133 71.0254C91.1133 70.1699 90.8789 69.4844 90.4102 68.9688C89.9473 68.4473 89.3291 68.1865 88.5557 68.1865C87.8467 68.1865 87.29 68.3418 86.8857 68.6523L86.4551 69.0039L85.1543 68.6699Z" fill="black"/>
<path d="M76.1841 95.8625V97.2424H75.8853C74.6196 97.2659 73.6118 97.6409 72.8618 98.3674C72.1118 99.094 71.6782 100.116 71.561 101.435C72.2349 100.661 73.1548 100.275 74.3208 100.275C75.4341 100.275 76.3218 100.667 76.9839 101.452C77.6519 102.238 77.9858 103.251 77.9858 104.493C77.9858 105.812 77.6255 106.866 76.9048 107.657C76.1899 108.448 75.229 108.844 74.022 108.844C72.7974 108.844 71.8042 108.375 71.0425 107.438C70.2808 106.494 69.8999 105.281 69.8999 103.799V103.175C69.8999 100.82 70.4009 99.0208 71.4028 97.7786C72.4106 96.5305 73.9077 95.8918 75.894 95.8625H76.1841ZM74.0483 101.628C73.4917 101.628 72.979 101.795 72.5103 102.129C72.0415 102.463 71.7163 102.882 71.5347 103.386V103.984C71.5347 105.038 71.772 105.888 72.2466 106.532C72.7212 107.177 73.313 107.499 74.022 107.499C74.7544 107.499 75.3286 107.23 75.7446 106.691C76.1665 106.152 76.3774 105.446 76.3774 104.573C76.3774 103.694 76.1636 102.985 75.7358 102.446C75.314 101.901 74.7515 101.628 74.0483 101.628Z" fill="black"/>
<path d="M54.2705 130.726C54.2705 131.365 54.1006 131.933 53.7607 132.431C53.4268 132.929 52.9727 133.319 52.3984 133.6C53.0664 133.887 53.5938 134.306 53.9805 134.857C54.373 135.407 54.5693 136.031 54.5693 136.729C54.5693 137.836 54.1943 138.718 53.4443 139.374C52.7002 140.031 51.7188 140.359 50.5 140.359C49.2695 140.359 48.2822 140.031 47.5381 139.374C46.7998 138.712 46.4307 137.83 46.4307 136.729C46.4307 136.037 46.6182 135.413 46.9932 134.857C47.374 134.3 47.8984 133.878 48.5664 133.591C47.998 133.31 47.5498 132.92 47.2217 132.422C46.8936 131.924 46.7295 131.359 46.7295 130.726C46.7295 129.648 47.0752 128.792 47.7666 128.159C48.458 127.527 49.3691 127.21 50.5 127.21C51.625 127.21 52.5332 127.527 53.2246 128.159C53.9219 128.792 54.2705 129.648 54.2705 130.726ZM52.9434 136.694C52.9434 135.979 52.7148 135.396 52.2578 134.945C51.8066 134.493 51.2148 134.268 50.4824 134.268C49.75 134.268 49.1611 134.49 48.7158 134.936C48.2764 135.381 48.0566 135.967 48.0566 136.694C48.0566 137.42 48.2705 137.991 48.6982 138.407C49.1318 138.823 49.7324 139.031 50.5 139.031C51.2617 139.031 51.8594 138.823 52.293 138.407C52.7266 137.986 52.9434 137.414 52.9434 136.694ZM50.5 128.546C49.8613 128.546 49.3428 128.745 48.9443 129.144C48.5518 129.536 48.3555 130.073 48.3555 130.752C48.3555 131.403 48.5488 131.93 48.9355 132.334C49.3281 132.733 49.8496 132.932 50.5 132.932C51.1504 132.932 51.6689 132.733 52.0557 132.334C52.4482 131.93 52.6445 131.403 52.6445 130.752C52.6445 130.102 52.4424 129.572 52.0381 129.161C51.6338 128.751 51.1211 128.546 50.5 128.546Z" fill="black"/>
<path d="M54.5938 195.343H49.2236V200.994H47.5361V188.197H55.4639V189.586H49.2236V193.963H54.5938V195.343Z" fill="#EB1E25"/>
</svg>
