<svg width="161" height="116" viewBox="0 0 161 116" fill="none" xmlns="http://www.w3.org/2000/svg">
<path fill-rule="evenodd" clip-rule="evenodd" d="M144.172 2.44631L122.5 57.4859L129.251 98.675L144.686 95.5637C147.577 94.9811 150.307 96.8677 150.784 99.7775C150.876 100.341 150.497 100.889 149.938 101.001L104.223 110.216C103.664 110.329 103.135 109.964 103.043 109.4C102.566 106.49 104.523 103.659 107.413 103.077L122.849 99.9655L116.098 58.7749L78.3498 15.7138C77.8437 15.1365 78.1757 14.1987 78.9408 14.0445L143.089 1.11443C143.854 0.960212 144.463 1.70842 144.172 2.44631Z" fill="url(#paint0_angular)"/>
<path fill-rule="evenodd" clip-rule="evenodd" d="M15.968 6.02053L37.6399 61.0601L30.8895 102.249L15.4538 99.1379C12.5633 98.5553 9.83345 100.442 9.35657 103.352C9.26427 103.915 9.64298 104.463 10.2024 104.576L55.9169 113.79C56.4764 113.903 57.0047 113.538 57.097 112.975C57.5739 110.065 55.6173 107.234 52.7268 106.651L37.2915 103.54L44.0421 62.3491L81.7904 19.288C82.2965 18.7107 81.9644 17.773 81.1993 17.6187L17.0509 4.68865C16.2858 4.53443 15.6775 5.28264 15.968 6.02053Z" fill="url(#paint1_radial)"/>
<defs>
<radialGradient id="paint0_angular" cx="0" cy="0" r="1" gradientUnits="userSpaceOnUse" gradientTransform="translate(38.0816 12.2376) rotate(26.9796) scale(337.032 615.976)">
<stop offset="0.299619" stop-color="#1515D8"/>
<stop offset="0.526042" stop-color="white" stop-opacity="0.401042"/>
<stop offset="0.713204" stop-color="#2E2EFF" stop-opacity="0"/>
</radialGradient>
<radialGradient id="paint1_radial" cx="0" cy="0" r="1" gradientUnits="userSpaceOnUse" gradientTransform="translate(122.059 15.8119) rotate(147.246) scale(185.106 338.309)">
<stop offset="0.299619" stop-color="#1515D8"/>
<stop offset="0.526042" stop-color="white" stop-opacity="0.401042"/>
<stop offset="0.713204" stop-color="#2E2EFF" stop-opacity="0"/>
</radialGradient>
</defs>
</svg>
